<mxfile host="app.diagrams.net" modified="2021-10-02T04:19:56.056Z" agent="5.0 (Windows NT 10.0; Win64; x64) AppleWebKit/537.36 (KHTML, like Gecko) Chrome/93.0.4577.82 Safari/537.36" etag="F9Oh-HWfp9ShpACn7b2o" version="15.4.1" type="github">
  <diagram id="6a731a19-8d31-9384-78a2-239565b7b9f0" name="Page-1">
    <mxGraphModel dx="1422" dy="839" grid="1" gridSize="10" guides="1" tooltips="1" connect="1" arrows="1" fold="1" page="1" pageScale="1" pageWidth="827" pageHeight="1169" background="none" math="0" shadow="0">
      <root>
        <mxCell id="0" />
        <mxCell id="1" parent="0" />
        <mxCell id="o0674zLys5y1olf2XQM8-2272" style="edgeStyle=none;rounded=0;orthogonalLoop=1;jettySize=auto;html=1;exitX=0.12;exitY=0.9;exitDx=0;exitDy=0;exitPerimeter=0;endArrow=none;endFill=0;" edge="1" parent="1" source="o0674zLys5y1olf2XQM8-2257" target="o0674zLys5y1olf2XQM8-2259">
          <mxGeometry relative="1" as="geometry" />
        </mxCell>
        <mxCell id="o0674zLys5y1olf2XQM8-2273" style="edgeStyle=none;rounded=0;orthogonalLoop=1;jettySize=auto;html=1;exitX=0.88;exitY=0.9;exitDx=0;exitDy=0;exitPerimeter=0;endArrow=none;endFill=0;" edge="1" parent="1" source="o0674zLys5y1olf2XQM8-2257" target="o0674zLys5y1olf2XQM8-2260">
          <mxGeometry relative="1" as="geometry" />
        </mxCell>
        <mxCell id="o0674zLys5y1olf2XQM8-2295" style="edgeStyle=none;rounded=0;orthogonalLoop=1;jettySize=auto;html=1;exitX=1;exitY=0.5;exitDx=0;exitDy=0;exitPerimeter=0;endArrow=none;endFill=0;" edge="1" parent="1" source="o0674zLys5y1olf2XQM8-2257" target="o0674zLys5y1olf2XQM8-2258">
          <mxGeometry relative="1" as="geometry" />
        </mxCell>
        <mxCell id="o0674zLys5y1olf2XQM8-2257" value="" style="shape=mxgraph.cisco.routers.router;sketch=0;html=1;pointerEvents=1;dashed=0;fillColor=#036897;strokeColor=#ffffff;strokeWidth=2;verticalLabelPosition=bottom;verticalAlign=top;align=center;outlineConnect=0;" vertex="1" parent="1">
          <mxGeometry x="130" y="190" width="78" height="53" as="geometry" />
        </mxCell>
        <mxCell id="o0674zLys5y1olf2XQM8-2258" value="" style="shape=mxgraph.cisco.routers.router;sketch=0;html=1;pointerEvents=1;dashed=0;fillColor=#036897;strokeColor=#ffffff;strokeWidth=2;verticalLabelPosition=bottom;verticalAlign=top;align=center;outlineConnect=0;" vertex="1" parent="1">
          <mxGeometry x="610" y="190" width="78" height="53" as="geometry" />
        </mxCell>
        <mxCell id="o0674zLys5y1olf2XQM8-2280" style="edgeStyle=none;rounded=0;orthogonalLoop=1;jettySize=auto;html=1;exitX=1;exitY=0;exitDx=0;exitDy=0;exitPerimeter=0;endArrow=none;endFill=0;" edge="1" parent="1" source="o0674zLys5y1olf2XQM8-2259" target="o0674zLys5y1olf2XQM8-2258">
          <mxGeometry relative="1" as="geometry" />
        </mxCell>
        <mxCell id="o0674zLys5y1olf2XQM8-2285" style="edgeStyle=none;rounded=0;orthogonalLoop=1;jettySize=auto;html=1;exitX=0.95;exitY=0.94;exitDx=0;exitDy=0;exitPerimeter=0;endArrow=none;endFill=0;" edge="1" parent="1" source="o0674zLys5y1olf2XQM8-2259" target="o0674zLys5y1olf2XQM8-2268">
          <mxGeometry relative="1" as="geometry" />
        </mxCell>
        <mxCell id="o0674zLys5y1olf2XQM8-2294" style="edgeStyle=none;rounded=0;orthogonalLoop=1;jettySize=auto;html=1;exitX=1;exitY=0.5;exitDx=0;exitDy=0;exitPerimeter=0;entryX=0;entryY=0.5;entryDx=0;entryDy=0;entryPerimeter=0;endArrow=none;endFill=0;" edge="1" parent="1" source="o0674zLys5y1olf2XQM8-2259" target="o0674zLys5y1olf2XQM8-2260">
          <mxGeometry relative="1" as="geometry" />
        </mxCell>
        <mxCell id="o0674zLys5y1olf2XQM8-2259" value="" style="shape=mxgraph.cisco.switches.layer_3_switch;sketch=0;html=1;pointerEvents=1;dashed=0;fillColor=#036897;strokeColor=#ffffff;strokeWidth=2;verticalLabelPosition=bottom;verticalAlign=top;align=center;outlineConnect=0;" vertex="1" parent="1">
          <mxGeometry x="20" y="400" width="64" height="64" as="geometry" />
        </mxCell>
        <mxCell id="o0674zLys5y1olf2XQM8-2278" style="edgeStyle=none;rounded=0;orthogonalLoop=1;jettySize=auto;html=1;exitX=1;exitY=0;exitDx=0;exitDy=0;exitPerimeter=0;endArrow=none;endFill=0;" edge="1" parent="1" source="o0674zLys5y1olf2XQM8-2260" target="o0674zLys5y1olf2XQM8-2258">
          <mxGeometry relative="1" as="geometry" />
        </mxCell>
        <mxCell id="o0674zLys5y1olf2XQM8-2282" style="edgeStyle=none;rounded=0;orthogonalLoop=1;jettySize=auto;html=1;exitX=0;exitY=1;exitDx=0;exitDy=0;exitPerimeter=0;entryX=0.5;entryY=0;entryDx=0;entryDy=0;entryPerimeter=0;endArrow=none;endFill=0;" edge="1" parent="1" source="o0674zLys5y1olf2XQM8-2260" target="o0674zLys5y1olf2XQM8-2264">
          <mxGeometry relative="1" as="geometry" />
        </mxCell>
        <mxCell id="o0674zLys5y1olf2XQM8-2284" style="edgeStyle=none;rounded=0;orthogonalLoop=1;jettySize=auto;html=1;exitX=0.5;exitY=1;exitDx=0;exitDy=0;exitPerimeter=0;endArrow=none;endFill=0;" edge="1" parent="1" source="o0674zLys5y1olf2XQM8-2260">
          <mxGeometry relative="1" as="geometry">
            <mxPoint x="210" y="610" as="targetPoint" />
          </mxGeometry>
        </mxCell>
        <mxCell id="o0674zLys5y1olf2XQM8-2260" value="" style="shape=mxgraph.cisco.switches.layer_3_switch;sketch=0;html=1;pointerEvents=1;dashed=0;fillColor=#036897;strokeColor=#ffffff;strokeWidth=2;verticalLabelPosition=bottom;verticalAlign=top;align=center;outlineConnect=0;" vertex="1" parent="1">
          <mxGeometry x="230" y="400" width="64" height="64" as="geometry" />
        </mxCell>
        <mxCell id="o0674zLys5y1olf2XQM8-2274" style="edgeStyle=none;rounded=0;orthogonalLoop=1;jettySize=auto;html=1;exitX=1;exitY=0;exitDx=0;exitDy=0;exitPerimeter=0;endArrow=none;endFill=0;" edge="1" parent="1" source="o0674zLys5y1olf2XQM8-2261" target="o0674zLys5y1olf2XQM8-2258">
          <mxGeometry relative="1" as="geometry" />
        </mxCell>
        <mxCell id="o0674zLys5y1olf2XQM8-2277" style="edgeStyle=none;rounded=0;orthogonalLoop=1;jettySize=auto;html=1;exitX=0.08;exitY=0.05;exitDx=0;exitDy=0;exitPerimeter=0;endArrow=none;endFill=0;" edge="1" parent="1" source="o0674zLys5y1olf2XQM8-2261" target="o0674zLys5y1olf2XQM8-2257">
          <mxGeometry relative="1" as="geometry" />
        </mxCell>
        <mxCell id="o0674zLys5y1olf2XQM8-2287" style="edgeStyle=none;rounded=0;orthogonalLoop=1;jettySize=auto;html=1;exitX=0;exitY=1;exitDx=0;exitDy=0;exitPerimeter=0;endArrow=none;endFill=0;" edge="1" parent="1" source="o0674zLys5y1olf2XQM8-2261" target="o0674zLys5y1olf2XQM8-2269">
          <mxGeometry relative="1" as="geometry" />
        </mxCell>
        <mxCell id="o0674zLys5y1olf2XQM8-2288" style="edgeStyle=none;rounded=0;orthogonalLoop=1;jettySize=auto;html=1;exitX=0.5;exitY=1;exitDx=0;exitDy=0;exitPerimeter=0;entryX=0.5;entryY=0;entryDx=0;entryDy=0;entryPerimeter=0;endArrow=none;endFill=0;" edge="1" parent="1" source="o0674zLys5y1olf2XQM8-2261" target="o0674zLys5y1olf2XQM8-2270">
          <mxGeometry relative="1" as="geometry" />
        </mxCell>
        <mxCell id="o0674zLys5y1olf2XQM8-2289" style="edgeStyle=none;rounded=0;orthogonalLoop=1;jettySize=auto;html=1;exitX=0.95;exitY=0.94;exitDx=0;exitDy=0;exitPerimeter=0;endArrow=none;endFill=0;" edge="1" parent="1" source="o0674zLys5y1olf2XQM8-2261" target="o0674zLys5y1olf2XQM8-2271">
          <mxGeometry relative="1" as="geometry" />
        </mxCell>
        <mxCell id="o0674zLys5y1olf2XQM8-2293" style="edgeStyle=none;rounded=0;orthogonalLoop=1;jettySize=auto;html=1;exitX=1;exitY=0.5;exitDx=0;exitDy=0;exitPerimeter=0;entryX=0;entryY=0.5;entryDx=0;entryDy=0;entryPerimeter=0;endArrow=none;endFill=0;" edge="1" parent="1" source="o0674zLys5y1olf2XQM8-2261" target="o0674zLys5y1olf2XQM8-2262">
          <mxGeometry relative="1" as="geometry" />
        </mxCell>
        <mxCell id="o0674zLys5y1olf2XQM8-2261" value="" style="shape=mxgraph.cisco.switches.layer_3_switch;sketch=0;html=1;pointerEvents=1;dashed=0;fillColor=#036897;strokeColor=#ffffff;strokeWidth=2;verticalLabelPosition=bottom;verticalAlign=top;align=center;outlineConnect=0;" vertex="1" parent="1">
          <mxGeometry x="480" y="400" width="64" height="64" as="geometry" />
        </mxCell>
        <mxCell id="o0674zLys5y1olf2XQM8-2275" style="edgeStyle=none;rounded=0;orthogonalLoop=1;jettySize=auto;html=1;exitX=0.5;exitY=0;exitDx=0;exitDy=0;exitPerimeter=0;entryX=0.5;entryY=1;entryDx=0;entryDy=0;entryPerimeter=0;endArrow=none;endFill=0;" edge="1" parent="1" source="o0674zLys5y1olf2XQM8-2262" target="o0674zLys5y1olf2XQM8-2258">
          <mxGeometry relative="1" as="geometry" />
        </mxCell>
        <mxCell id="o0674zLys5y1olf2XQM8-2279" style="edgeStyle=none;rounded=0;orthogonalLoop=1;jettySize=auto;html=1;exitX=0.08;exitY=0.05;exitDx=0;exitDy=0;exitPerimeter=0;endArrow=none;endFill=0;" edge="1" parent="1" source="o0674zLys5y1olf2XQM8-2262" target="o0674zLys5y1olf2XQM8-2257">
          <mxGeometry relative="1" as="geometry" />
        </mxCell>
        <mxCell id="o0674zLys5y1olf2XQM8-2290" style="edgeStyle=none;rounded=0;orthogonalLoop=1;jettySize=auto;html=1;exitX=0;exitY=1;exitDx=0;exitDy=0;exitPerimeter=0;endArrow=none;endFill=0;" edge="1" parent="1" source="o0674zLys5y1olf2XQM8-2262" target="o0674zLys5y1olf2XQM8-2269">
          <mxGeometry relative="1" as="geometry" />
        </mxCell>
        <mxCell id="o0674zLys5y1olf2XQM8-2291" style="edgeStyle=none;rounded=0;orthogonalLoop=1;jettySize=auto;html=1;exitX=0.5;exitY=1;exitDx=0;exitDy=0;exitPerimeter=0;entryX=0.5;entryY=0;entryDx=0;entryDy=0;entryPerimeter=0;endArrow=none;endFill=0;" edge="1" parent="1" source="o0674zLys5y1olf2XQM8-2262" target="o0674zLys5y1olf2XQM8-2270">
          <mxGeometry relative="1" as="geometry" />
        </mxCell>
        <mxCell id="o0674zLys5y1olf2XQM8-2292" style="edgeStyle=none;rounded=0;orthogonalLoop=1;jettySize=auto;html=1;exitX=0.95;exitY=0.94;exitDx=0;exitDy=0;exitPerimeter=0;entryX=0.16;entryY=0.23;entryDx=0;entryDy=0;entryPerimeter=0;endArrow=none;endFill=0;" edge="1" parent="1" source="o0674zLys5y1olf2XQM8-2262" target="o0674zLys5y1olf2XQM8-2271">
          <mxGeometry relative="1" as="geometry" />
        </mxCell>
        <mxCell id="o0674zLys5y1olf2XQM8-2262" value="" style="shape=mxgraph.cisco.switches.layer_3_switch;sketch=0;html=1;pointerEvents=1;dashed=0;fillColor=#036897;strokeColor=#ffffff;strokeWidth=2;verticalLabelPosition=bottom;verticalAlign=top;align=center;outlineConnect=0;" vertex="1" parent="1">
          <mxGeometry x="700" y="400" width="64" height="64" as="geometry" />
        </mxCell>
        <mxCell id="o0674zLys5y1olf2XQM8-2281" style="edgeStyle=none;rounded=0;orthogonalLoop=1;jettySize=auto;html=1;exitX=0.5;exitY=0;exitDx=0;exitDy=0;exitPerimeter=0;entryX=0;entryY=1;entryDx=0;entryDy=0;entryPerimeter=0;endArrow=none;endFill=0;" edge="1" parent="1" source="o0674zLys5y1olf2XQM8-2264" target="o0674zLys5y1olf2XQM8-2259">
          <mxGeometry relative="1" as="geometry" />
        </mxCell>
        <mxCell id="o0674zLys5y1olf2XQM8-2264" value="" style="shape=mxgraph.cisco.switches.workgroup_switch;sketch=0;html=1;pointerEvents=1;dashed=0;fillColor=#036897;strokeColor=#ffffff;strokeWidth=2;verticalLabelPosition=bottom;verticalAlign=top;align=center;outlineConnect=0;" vertex="1" parent="1">
          <mxGeometry x="20" y="610" width="101" height="50" as="geometry" />
        </mxCell>
        <mxCell id="o0674zLys5y1olf2XQM8-2283" style="edgeStyle=none;rounded=0;orthogonalLoop=1;jettySize=auto;html=1;exitX=0.5;exitY=0;exitDx=0;exitDy=0;exitPerimeter=0;entryX=0.5;entryY=1;entryDx=0;entryDy=0;entryPerimeter=0;endArrow=none;endFill=0;" edge="1" parent="1" source="o0674zLys5y1olf2XQM8-2267" target="o0674zLys5y1olf2XQM8-2259">
          <mxGeometry relative="1" as="geometry" />
        </mxCell>
        <mxCell id="o0674zLys5y1olf2XQM8-2267" value="" style="shape=mxgraph.cisco.switches.workgroup_switch;sketch=0;html=1;pointerEvents=1;dashed=0;fillColor=#036897;strokeColor=#ffffff;strokeWidth=2;verticalLabelPosition=bottom;verticalAlign=top;align=center;outlineConnect=0;" vertex="1" parent="1">
          <mxGeometry x="160" y="610" width="101" height="50" as="geometry" />
        </mxCell>
        <mxCell id="o0674zLys5y1olf2XQM8-2286" style="edgeStyle=none;rounded=0;orthogonalLoop=1;jettySize=auto;html=1;exitX=0.5;exitY=0;exitDx=0;exitDy=0;exitPerimeter=0;entryX=0.95;entryY=0.94;entryDx=0;entryDy=0;entryPerimeter=0;endArrow=none;endFill=0;" edge="1" parent="1" source="o0674zLys5y1olf2XQM8-2268" target="o0674zLys5y1olf2XQM8-2260">
          <mxGeometry relative="1" as="geometry" />
        </mxCell>
        <mxCell id="o0674zLys5y1olf2XQM8-2268" value="" style="shape=mxgraph.cisco.switches.workgroup_switch;sketch=0;html=1;pointerEvents=1;dashed=0;fillColor=#036897;strokeColor=#ffffff;strokeWidth=2;verticalLabelPosition=bottom;verticalAlign=top;align=center;outlineConnect=0;" vertex="1" parent="1">
          <mxGeometry x="310" y="600" width="91" height="50" as="geometry" />
        </mxCell>
        <mxCell id="o0674zLys5y1olf2XQM8-2269" value="" style="shape=mxgraph.cisco.switches.workgroup_switch;sketch=0;html=1;pointerEvents=1;dashed=0;fillColor=#036897;strokeColor=#ffffff;strokeWidth=2;verticalLabelPosition=bottom;verticalAlign=top;align=center;outlineConnect=0;" vertex="1" parent="1">
          <mxGeometry x="440" y="610" width="101" height="50" as="geometry" />
        </mxCell>
        <mxCell id="o0674zLys5y1olf2XQM8-2270" value="" style="shape=mxgraph.cisco.switches.workgroup_switch;sketch=0;html=1;pointerEvents=1;dashed=0;fillColor=#036897;strokeColor=#ffffff;strokeWidth=2;verticalLabelPosition=bottom;verticalAlign=top;align=center;outlineConnect=0;" vertex="1" parent="1">
          <mxGeometry x="570" y="610" width="101" height="50" as="geometry" />
        </mxCell>
        <mxCell id="o0674zLys5y1olf2XQM8-2271" value="" style="shape=mxgraph.cisco.switches.workgroup_switch;sketch=0;html=1;pointerEvents=1;dashed=0;fillColor=#036897;strokeColor=#ffffff;strokeWidth=2;verticalLabelPosition=bottom;verticalAlign=top;align=center;outlineConnect=0;" vertex="1" parent="1">
          <mxGeometry x="710" y="610" width="101" height="50" as="geometry" />
        </mxCell>
      </root>
    </mxGraphModel>
  </diagram>
</mxfile>
